<?xml version="1.0" encoding="utf-8"?>
<!-- Generator: Adobe Illustrator 17.1.0, SVG Export Plug-In . SVG Version: 6.00 Build 0)  -->
<!DOCTYPE svg PUBLIC "-//W3C//DTD SVG 1.0//EN" "http://www.w3.org/TR/2001/REC-SVG-20010904/DTD/svg10.dtd" [
	<!ENTITY ns_flows "http://ns.adobe.com/Flows/1.0/">
	<!ENTITY ns_extend "http://ns.adobe.com/Extensibility/1.0/">
	<!ENTITY ns_ai "http://ns.adobe.com/AdobeIllustrator/10.0/">
	<!ENTITY ns_graphs "http://ns.adobe.com/Graphs/1.0/">
]>
<svg version="1.0" id="Layer_1" xmlns:x="&ns_extend;" xmlns:i="&ns_ai;" xmlns:graph="&ns_graphs;"
	 xmlns="http://www.w3.org/2000/svg" xmlns:xlink="http://www.w3.org/1999/xlink" xmlns:a="http://ns.adobe.com/AdobeSVGViewerExtensions/3.0/"
	 x="0px" y="0px" viewBox="0 0 640 480" enable-background="new 0 0 640 480" xml:space="preserve">
<g>
	<g>
		<g>
			
				<rect x="467.509" y="87.214" fill="#202020" stroke="#000000" stroke-width="0.5" stroke-miterlimit="10" width="45.446" height="30.871"/>
			<g>
				<path fill="#202020" stroke="#000000" stroke-width="0.5" stroke-miterlimit="10" d="M259,241.571l-86.816-103.464
					c25.142-21.097,53.996-31.599,86.816-31.599V241.571z"/>
			</g>
		</g>
		<g>
			
				<rect x="467.509" y="133.521" fill="#9F9F9F" stroke="#000000" stroke-width="0.5" stroke-miterlimit="10" width="45.446" height="30.871"/>
			<g>
				<path fill="#9F9F9F" stroke="#000000" stroke-width="0.5" stroke-miterlimit="10" d="M259,241.571l-134.733,9.421
					c-3.122-44.647,13.632-84.117,47.917-112.885L259,241.571z"/>
			</g>
		</g>
		<g>
			
				<rect x="467.509" y="179.829" fill="#404040" stroke="#000000" stroke-width="0.5" stroke-miterlimit="10" width="45.446" height="30.871"/>
			<g>
				<path fill="#404040" stroke="#000000" stroke-width="0.5" stroke-miterlimit="10" d="M259,241.571l-71.572,114.54
					c-37.955-23.717-60.039-60.471-63.161-105.118L259,241.571z"/>
			</g>
		</g>
		<g>
			
				<rect x="467.509" y="226.136" fill="#808080" stroke="#000000" stroke-width="0.5" stroke-miterlimit="10" width="45.446" height="30.871"/>
			<g>
				<path fill="#808080" stroke="#000000" stroke-width="0.5" stroke-miterlimit="10" d="M259,241.571l109.268,79.388
					c-42.091,57.933-120.112,73.099-180.84,35.152L259,241.571z"/>
			</g>
		</g>
		<g>
			
				<rect x="467.509" y="272.443" fill="#DFDFDF" stroke="#000000" stroke-width="0.5" stroke-miterlimit="10" width="45.446" height="30.871"/>
			<g>
				<path fill="#DFDFDF" stroke="#000000" stroke-width="0.5" stroke-miterlimit="10" d="M259,241.571l134.733-9.421
					c2.289,32.741-6.174,62.257-25.466,88.809L259,241.571z"/>
			</g>
		</g>
		<g>
			<rect x="467.509" y="318.75" stroke="#000000" stroke-width="0.5" stroke-miterlimit="10" width="45.446" height="30.871"/>
			<g>
				<path stroke="#000000" stroke-width="0.5" stroke-miterlimit="10" d="M259,241.571V106.509
					c71.609,0,129.738,54.206,134.733,125.641L259,241.571z"/>
			</g>
		</g>
	</g>
	<g>
		<g>
		</g>
		<g>
		</g>
		<g>
		</g>
		<g>
		</g>
		<g>
		</g>
		<g>
		</g>
	</g>
	<g>
		<text transform="matrix(1 0 0 1 518.6357 109.041)" font-family="'MyriadPro-Regular'" font-size="17.0424">f</text>
		<text transform="matrix(1 0 0 1 518.6357 155.3481)" font-family="'MyriadPro-Regular'" font-size="17.0424">e</text>
		<text transform="matrix(1 0 0 1 518.6357 201.6553)" font-family="'MyriadPro-Regular'" font-size="17.0424">d</text>
		<text transform="matrix(1 0 0 1 518.6357 247.9619)" font-family="'MyriadPro-Regular'" font-size="17.0424">c</text>
		<text transform="matrix(1 0 0 1 518.6357 294.2695)" font-family="'MyriadPro-Regular'" font-size="17.0424">b</text>
		<text transform="matrix(1 0 0 1 518.6357 340.5762)" font-family="'MyriadPro-Regular'" font-size="17.0424">A</text>
	</g>
</g>
</svg>
